<svg xmlns="http://www.w3.org/2000/svg" x="0px" y="0px" width="100" height="100" viewBox="0 0 50 50">
<polygon fill="#c0c0c0" points="15,1.906 11.002,4.214 11,4.213 10.999,8.835 35,22.691 39,20.381 39,15.762"></polygon><polygon fill="#6b7280" points="39,15.762 15,1.906 11,4.215 35,18.072"></polygon><polygon fill="#8b8b8b" points="35,18.072 35,22.691 39,20.381 39,15.762"></polygon><polygon fill="#c0c0c0" points="15,27.309 11.002,29.617 11,29.616 10.999,34.238 35,48.094 39,45.785 39,41.166"></polygon><polygon fill="#6b7280" points="39,41.166 15,27.309 11,29.619 35,43.475"></polygon><polygon fill="#8b8b8b" points="35,43.475 35,48.094 39,45.785 39,41.166"></polygon><polygon fill="#c0c0c0" points="15,14.608 11.002,16.916 11,16.914 10.999,21.537 35,35.392 39,33.083 39,28.464"></polygon><polygon fill="#6b7280" points="39,28.464 15,14.608 11,16.917 35,30.774"></polygon><polygon fill="#8b8b8b" points="35,30.774 35,35.392 39,33.083 39,28.464"></polygon>
</svg>